<?xml version="1.0" standalone="no"?>
<!DOCTYPE svg PUBLIC "-//W3C//DTD SVG 20010904//EN"
 "http://www.w3.org/TR/2001/REC-SVG-20010904/DTD/svg10.dtd">
<svg version="1.0" xmlns="http://www.w3.org/2000/svg"
 width="512.000000pt" height="512.000000pt" viewBox="0 0 512.000000 512.000000"
 preserveAspectRatio="xMidYMid meet">
<metadata>
Created by potrace 1.14, written by Peter Selinger 2001-2017
</metadata>
<g transform="translate(0.000000,512.000000) scale(0.100000,-0.100000)"
fill="#000000" stroke="none">
<path d="M2369 5116 c-2 -2 -40 -7 -84 -10 -299 -25 -634 -125 -925 -277 -327
-172 -582 -386 -843 -708 -41 -51 -159 -237 -199 -313 -24 -46 -47 -86 -53
-90 -5 -4 -7 -8 -3 -8 4 0 -6 -25 -23 -56 -16 -31 -27 -59 -25 -62 3 -2 -2
-11 -10 -19 -8 -8 -12 -19 -9 -24 4 -5 1 -9 -4 -9 -6 0 -11 -9 -11 -19 0 -11
-7 -26 -15 -34 -8 -8 -12 -17 -9 -19 3 -3 -5 -31 -16 -62 -12 -30 -18 -61 -14
-67 4 -8 3 -9 -4 -5 -8 5 -12 -1 -12 -16 0 -13 -5 -29 -12 -36 -7 -7 -9 -12
-6 -12 3 0 -2 -26 -11 -58 -10 -32 -17 -65 -15 -75 1 -9 -2 -17 -8 -17 -6 0
-7 -7 -4 -16 3 -8 1 -24 -4 -35 -6 -10 -13 -40 -16 -67 -4 -48 -11 -97 -14
-97 -6 0 -13 -159 -14 -325 -1 -182 7 -335 19 -395 3 -11 7 -36 9 -55 33 -228
112 -473 232 -717 127 -258 284 -477 488 -678 189 -187 346 -303 597 -440 245
-134 538 -228 844 -272 122 -17 598 -27 646 -13 18 5 27 5 24 -1 -8 -12 -5
-12 44 6 22 8 41 10 41 5 0 -5 18 -3 41 5 23 8 45 12 50 9 5 -3 9 1 9 8 0 11
2 11 9 0 6 -10 18 -9 57 6 27 11 59 18 72 16 12 -2 22 1 22 7 0 5 4 8 9 4 5
-3 54 10 108 29 54 18 134 46 178 62 44 15 85 33 90 39 6 7 33 21 60 31 28 10
52 20 55 23 4 5 36 23 111 64 13 7 35 19 49 28 14 9 57 35 95 60 39 24 72 46
75 49 3 3 21 17 40 30 121 82 333 279 446 415 259 309 450 696 533 1080 19 89
23 112 36 210 4 28 9 61 12 75 9 45 11 543 2 566 -4 13 -5 26 0 28 5 3 4 24 0
46 -5 22 -13 59 -18 82 -7 31 -6 45 2 50 8 5 5 8 -7 8 -14 0 -17 3 -9 11 8 8
6 24 -7 58 -9 26 -15 57 -13 69 1 12 -2 22 -8 22 -5 0 -8 4 -5 9 8 12 -113
363 -129 376 -7 6 -20 32 -30 60 -10 27 -22 54 -27 60 -5 5 -37 60 -71 120
-149 265 -357 515 -577 695 -30 25 -60 49 -66 55 -6 5 -22 17 -34 25 -12 8
-41 29 -64 46 -110 81 -330 203 -486 269 -188 80 -462 153 -640 171 -36 3 -69
9 -74 12 -10 6 -471 13 -477 8z"/>
</g>
</svg>
