<svg width="330" height="17" viewBox="0 0 330 17" fill="none" xmlns="http://www.w3.org/2000/svg">
<path d="M8.736 14H7.812L2.758 9.296H2.66V14H1.26V4.2H2.66V8.666H2.94L6.412 4.2H8.036L4.046 8.316L8.736 14ZM25.1385 9.268V4.2H26.5385V14H25.1385V10.052H20.1545V14H18.7545V4.2H20.1545V9.268H25.1385ZM38.8771 11.452L45.8631 4.06H46.0031V14H44.7991L45.2891 6.748L38.3031 14.14H38.1631V4.2H39.3671L38.8771 11.452ZM69.1484 14H68.2244L63.3944 9.296H63.3104V14H61.9104V9.296H61.7564L56.9824 14H56.0864L60.5524 8.386L56.5344 4.2H58.2144L61.6304 8.666H61.9104V4.2H63.3104V8.666H63.5904L67.0624 4.2H68.6864L64.6824 8.33L69.1484 14ZM86.6985 14H85.7745L80.7205 9.296H80.6225V14H79.2225V4.2H80.6225V8.666H80.9025L84.3745 4.2H85.9985L82.0085 8.316L86.6985 14ZM97.431 11.452L104.417 4.06H104.557V14H103.353L103.843 6.748L96.857 14.14H96.717V4.2H97.921L97.431 11.452Z" fill="#171717"/>
<path d="M146.83 4.06L151.17 14H149.602L146.326 6.44L143.218 14H142.07L146.69 4.06H146.83ZM170.338 4.088C171.169 4.18133 171.902 4.452 172.536 4.9C173.171 5.348 173.666 5.936 174.02 6.664C174.375 7.38267 174.552 8.19467 174.552 9.1C174.552 10.0427 174.338 10.9013 173.908 11.676C173.488 12.4413 172.91 13.0433 172.172 13.482C171.444 13.9207 170.628 14.14 169.722 14.14C168.892 14.14 168.136 13.972 167.454 13.636C166.782 13.2907 166.227 12.81 165.788 12.194C165.359 11.578 165.084 10.864 164.962 10.052H163.002V14H161.602V4.2H163.002V9.268H164.892V9.1C164.892 8.232 165.074 7.43867 165.438 6.72C165.802 5.992 166.302 5.39933 166.936 4.942C167.58 4.47533 168.304 4.19533 169.106 4.102V3.136H170.338V4.088ZM169.722 13.51C170.376 13.51 170.95 13.328 171.444 12.964C171.948 12.5907 172.34 12.068 172.62 11.396C172.9 10.724 173.04 9.954 173.04 9.086C173.04 8.33 172.928 7.644 172.704 7.028C172.48 6.412 172.163 5.908 171.752 5.516C171.342 5.11467 170.87 4.858 170.338 4.746V6.356H169.106V4.732C168.565 4.844 168.089 5.096 167.678 5.488C167.277 5.88 166.964 6.384 166.74 7C166.516 7.616 166.404 8.31133 166.404 9.086C166.404 9.93533 166.544 10.696 166.824 11.368C167.104 12.04 167.496 12.5673 168 12.95C168.504 13.3233 169.078 13.51 169.722 13.51ZM188.696 4.06H188.836L193.316 14H183.936L188.696 4.06ZM188.304 6.37L185.378 13.3H191.384L188.304 6.37ZM204.456 11.452L211.442 4.06H211.582V14H210.378L210.868 6.748L203.882 14.14H203.742V4.2H204.946L204.456 11.452Z" fill="#171717"/>
<path d="M259.262 4.06L261.362 14H259.92L258.548 7.518L254.754 14.14H254.614L253.004 7.014L250.288 14H249.14L253.662 4.06H253.802L255.51 11.648L259.122 4.06H259.262ZM272.417 14V4.2H273.817V14H272.417ZM289.458 14.14C288.553 14.14 287.736 13.93 287.008 13.51C286.28 13.0807 285.706 12.4833 285.286 11.718C284.876 10.9527 284.67 10.08 284.67 9.1C284.67 8.15733 284.88 7.30333 285.3 6.538C285.72 5.76333 286.294 5.15667 287.022 4.718C287.75 4.27933 288.562 4.06 289.458 4.06C290.392 4.06 291.185 4.23733 291.838 4.592C292.501 4.93733 293.005 5.43667 293.35 6.09L292.188 6.72C291.964 6.08533 291.61 5.59067 291.124 5.236C290.648 4.872 290.093 4.69 289.458 4.69C288.814 4.69 288.245 4.87667 287.75 5.25C287.256 5.614 286.868 6.132 286.588 6.804C286.318 7.476 286.182 8.24133 286.182 9.1C286.182 9.968 286.322 10.738 286.602 11.41C286.882 12.0727 287.27 12.5907 287.764 12.964C288.268 13.328 288.847 13.51 289.5 13.51C290.163 13.51 290.737 13.3093 291.222 12.908C291.717 12.5067 292.067 11.956 292.272 11.256L293.42 11.886C293.075 12.6047 292.562 13.16 291.88 13.552C291.208 13.944 290.401 14.14 289.458 14.14ZM311.964 7.98H310.984L309.444 4.9H308.044V14H306.644V4.9H305.202L303.662 7.98H302.724L303.984 4.2H310.704L311.964 7.98ZM329.105 14H327.537L326.529 11.676H322.091L321.153 14H320.005L324.625 4.06H324.765L329.105 14ZM324.233 6.398L322.385 10.976H326.221L324.233 6.398Z" fill="#171717"/>
<circle cx="124" cy="10" r="2" fill="#171717"/>
<circle cx="231" cy="10" r="2" fill="#171717"/>
</svg>
